<svg version="1.1" id="Layer_1" xmlns="http://www.w3.org/2000/svg" x="0" y="0" viewBox="0 0 512 512" xml:space="preserve">
  <style>
    .st0{fill:#fff}
  </style>
  <path class="st0" d="M273 233.8v-.7c-.1.2-.3.5-.5.7h.5z"/>
  <path class="st0" d="M472.3.1H39.1C18.5.1 1.7 16.5 1.7 36.7v438.2c0 20.2 16.8 36.6 37.5 36.6h433.2c20.8 0 37.6-16.4 37.6-36.6V36.7C509.9 16.5 493.1.1 472.3.1zM155.7 428.3H78.9v-231h76.8v231zm-38.4-262.6h-.5c-25.8 0-42.4-17.7-42.4-39.9 0-22.7 17.2-39.9 43.4-39.9 26.3 0 42.5 17.3 42.9 39.9.1 22.1-16.6 39.9-43.4 39.9zm315.3 262.6h-76.8V304.6c0-31.1-11.1-52.2-38.9-52.2-21.2 0-33.9 14.2-39.4 28.1-2 5-2.5 11.9-2.5 18.7v129h-76.8s1-209.3 0-231H275v32.6c10.2-15.7 28.5-38.2 69.2-38.2 50.5 0 88.3 33 88.3 104v132.7z"/>
</svg>