<svg version="1.1" id="Aerco" xmlns="http://www.w3.org/2000/svg" x="0" y="0" viewBox="0 0 205.2 49.6" xml:space="preserve">
  <style>
    .st1{fill:#FFFFFF}
  </style>
  <g>
    <path class="st1" d="M49.3 36.2v12.6c0 .6-.2.8-.8.8-5-.1-9.2-3.8-10-8.7-.1-.6-.1-1.3-.1-1.9V26.6c.1-1.9-.1-3.8-.7-5.6-1.8-5.3-5.5-8.7-11.1-9.6-5.8-.9-11.4 2-14.1 7.2-2.8 5.3-1.8 11.7 2.3 15.9 1.9 1.9 4.2 3.2 6.8 3.8 1.1.3 2.2.4 3.3.7 4.2 1.2 7.3 5 7.5 9.4v.5c0 .3-.2.6-.6.6h-.1c-3.1 0-6.2.1-9.3-.1-11-.9-20.1-9.2-22-20.3-1.3-6.9.5-14.1 5-19.6C9 4.9 14.2 1.7 20 .7c13.3-2.6 26.2 6 28.9 19.3.3 1.5.5 3.1.5 4.6l-.1 11.6z"/>
    <path class="st1" d="M109.4 37.1h-5.6V20.3 19c0-1.3-1-2.3-2.3-2.3h-5.7c-1.5 0-2.1 1-2.3 2.3-.1.3-.1.7-.1 1v17.1h-5.6v-.3-16.6c-.1-2.4.7-4.7 2.3-6.5 1.2-1.5 3-2.4 4.9-2.4 2.3-.1 4.6-.1 6.9-.1 1.8.1 3.5.7 4.8 1.8 1.5-1.2 3.4-1.9 5.3-1.9h5.4c3.9-.1 7.2 2.8 7.7 6.6.2.9.2 1.9.2 2.8V37.1h-5.6v-.4-16.5c0-.5-.1-1-.2-1.5-.2-.6-.5-1.1-.9-1.5-.3-.3-.7-.4-1.1-.4h-5.7c-1.3-.1-2.4.9-2.4 2.2V37.1zM186.9 11.1V.2h5.5V28.8c.1 2.1-.6 4.2-2.1 5.8-1.3 1.5-3.2 2.4-5.1 2.5-2.7.1-5.4.1-8.2.1-1 0-2.1 0-3.1-.1-3.3-.5-5.9-3-6.5-6.3-.1-.9-.2-1.8-.2-2.7v-7.7c-.1-1.4.1-2.8.5-4.1 1-2.6 3.3-4.5 6.1-4.9.7-.1 1.3-.2 2-.2l11.1-.1zm0 5.5h-11.8c-1.2 0-2.3.9-2.3 2.2V29.1c-.1 1.1.6 2 1.6 2.2.4.1.8.1 1.1.1h5.5c1.2 0 2.4 0 3.6-.1 1.1 0 2-.8 2.1-1.8.1-.3.1-.7.1-1l.1-11.9zM158.5 19.9c.1-.7-.1-1.5-.4-2.1-.6-.9-1.6-1.4-2.6-1.3h-15.7v-5.4H155.5c1.6-.1 3.1.3 4.5 1 1.9 1.1 3.3 3 3.7 5.2.2 1 .3 2.1.4 3.2.1 2.7 0 5.5 0 8.2 0 1.2-.1 2.3-.5 3.4-.9 2.5-3.1 4.4-5.8 4.8-.8.1-1.6.2-2.3.2h-7.6c-1.7 0-3.4-.4-4.9-1.3-2.2-1.3-3.6-3.6-3.8-6.2-.2-1.8.1-3.6.9-5.3 1.1-2.3 3.3-3.9 5.8-4.3.7-.1 1.3-.2 2-.2h10.3l.3.1zm0 5.5h-11.3c-1.2 0-2.2.8-2.4 1.9-.1.5-.2 1-.1 1.5-.1 1.4 1 2.6 2.3 2.7h9.2c1.1.1 2-.7 2.1-1.8.1-.7.1-1.5.1-2.2.1-.7.1-1.3.1-2.1zM79 19.9c.3-1.6-.7-3.1-2.3-3.4-.2 0-.5-.1-.7 0H60.3v-5.4H76c1.4-.1 2.8.2 4.1.8 2 1 3.5 2.8 4 5 .3 1.1.5 2.2.4 3.4v8.8c.1 1.9-.6 3.8-1.8 5.2-1.3 1.5-3 2.5-5 2.7-.7.1-1.4.1-2.2.1h-7.3c-1.6 0-3.2-.4-4.6-1.1-2.2-1.2-3.8-3.4-4.1-5.9-.3-2.1 0-4.2 1-6.1 1.1-2.1 3.2-3.6 5.6-4 .7-.1 1.3-.2 2-.2h10.3l.6.1zm0 5.5H67.7c-1.2 0-2.3.8-2.5 2-.1.3-.1.7-.1 1 0 2 1 3.1 3 3.1h8.6c1.1.1 2.1-.7 2.2-1.8.1-1.4.1-2.8.1-4.3zM135.1 37.1h-5.5v-26h5.5v26zM177.5 48l1.4-3c.4-.8.7-1.5 1.1-2.3.1-.4.5-.7.9-.8.6-.2 1.1.1 1.3.7 0 .2.1.3 0 .5v6.4H181v-5.6h-.1l-.1.2-2.2 4.5c-.2.4-.4.8-.9.9-.5.1-1-.2-1.2-.7-.4-.8-.8-1.7-1.2-2.6s-.8-1.6-1.2-2.4v5.6h-1.3V43c0-.6.2-1 .7-1.1.5-.2 1.1 0 1.4.5.5.9.9 1.8 1.3 2.7s.8 1.9 1.3 2.9zM63.2 47.9l1.2-4.2c.1-.3.2-.6.3-1 .1-.6.8-1 1.4-.9.4.1.8.4.9.9.5 1.6.9 3.1 1.4 4.7 0 .1.1.2.1.4l1.7-5.9h1.4c-.3 1-.6 1.9-.8 2.8-.4 1.3-.8 2.6-1.1 3.8-.2.7-.5.9-1.1.9-.6.1-1.1-.3-1.2-.9L66 43.7l-.1-.2c-.4 1.2-.7 2.3-1 3.4-.2.6-.3 1.1-.5 1.7-.1.5-.6.9-1.1.8-.5 0-.9-.3-1-.7-.7-2.2-1.3-4.5-2-6.7v-.1h1.3l1.6 6zM106 43.2v6.3h-1.3v-6c-.1-.7.4-1.4 1.1-1.4h3.9c1-.1 1.9.7 1.9 1.7.1.5 0 1.1-.1 1.6-.1.8-.9 1.4-1.8 1.4h-.9l3.8 2.8h-2c-.1 0-.2-.1-.3-.1-1.1-.8-2.2-1.7-3.4-2.5-.3-.2-.4-.6-.3-.9.1-.3.4-.4.8-.4h2.1c.6 0 .8-.1.8-.7v-1c0-.3-.2-.6-.5-.6-1.2-.2-2.5-.2-3.8-.2zM169 48.3v1.2h-5.1c-.9 0-1.3-.4-1.3-1.3v-5c-.1-.6.3-1.1.9-1.2h5.5v1.2h-5v1.9h4.9v1.2H164v2h5zM95.9 46.2v2.1h5.1v1.2h-5c-.9 0-1.3-.4-1.3-1.3v-4.9c-.1-.6.4-1.1 1-1.2h5.4v1.2h-5v1.9h4.9v1.2l-5.1-.2zM192.4 42v1.2H188c-.3 0-.6 0-.7.4-.1.6 0 .8.5 1l3.2 1c.7.2 1.4.5 1.6 1.3.4 1.4-.3 2.7-1.9 2.6s-3 0-4.6 0h-.1v-1.2h4.6c.3 0 .6 0 .7-.4s0-.8-.3-1c-.2-.1-.5-.2-.7-.3l-2.8-.8c-1-.2-1.7-1.1-1.6-2.1v-.2c.1-.8.8-1.5 1.7-1.5 1.6-.1 3.2 0 4.8 0zM128.2 42v1.2h-4.3c-.3 0-.6 0-.7.4-.1.6 0 .8.5 1l3.2 1c.7.2 1.4.5 1.6 1.2.4 1.2-.1 2.7-1.9 2.7h-4.7v-1.2h4.6c.4 0 .6 0 .7-.4.1-.7.1-.8-.4-1s-1.1-.3-1.6-.5-1.3-.4-2-.6c-1-.2-1.7-1.3-1.4-2.3 0-.1 0-.1.1-.2.2-.8.9-1.3 1.6-1.3h4.7zM148.3 42v1.2H144c-.6 0-.7.1-.8.5-.1.6 0 .8.6 1l3.2 1 .4.1c1 .3 1.6 1.3 1.3 2.4 0 .1-.1.3-.2.4-.2.6-.8 1-1.4 1H142v-1.2h4.6c.3 0 .6 0 .7-.4s0-.8-.4-1c-.4-.1-.8-.3-1.2-.4-.8-.2-1.7-.5-2.5-.8a2 2 0 01-1.4-2.3c0-.1 0-.1.1-.2.2-.7.8-1.2 1.6-1.2 1.6-.2 3.2-.1 4.8-.1zM82.4 49.4c-.5 0-1.1.1-1.4-.1s-.5-.7-.6-1.1c-.1-.6-.7-1-1.3-.9-.9.1-1.9 0-2.8 0-.2 0-.4.1-.4.3-.2.5-.5 1-.7 1.5-.1.1-.2.2-.3.2h-1.2l.8-1.7 2.5-5c.2-.5.6-.8 1.2-.8.5 0 .9.3 1.1.8.3.6.6 1.2.9 1.9l2.3 4.7c-.2.1-.1.2-.1.2zm-3-3.1l-1.5-3.1-1.5 3.1h3zM200.7 0c.6.1 1.3.1 2 .3 1.3.2 2.2 1.2 2.4 2.5.2 1 .2 1.9 0 2.9-.2 1.2-1.2 2.1-2.4 2.3-1.4.3-2.8.3-4.2 0-1.3-.2-2.3-1.3-2.4-2.6-.2-.9-.2-1.9 0-2.9.3-1.3 1.4-2.2 2.7-2.4.6 0 1.2 0 1.9-.1zm.1.7l-1.4.1c-1.3 0-2.4 1-2.4 2.3-.1.8 0 1.5.1 2.3.1 1 .9 1.9 1.9 2 1.2.3 2.4.2 3.6-.1.9-.2 1.6-.9 1.8-1.9.2-.8.2-1.7 0-2.6-.1-1-.9-1.8-1.9-2-.7 0-1.3 0-1.7-.1zM135.9 49.5h-1.3v-2c0-.3-.1-.6-.3-.8-1-1.4-2-2.9-3.1-4.3l-.2-.4h1.4c.1 0 .2.1.3.2l2.4 3.4.2.2 1.4-2c.4-.5.7-1.1 1.1-1.6.1-.1.3-.2.4-.2h1.3l-1.8 2.5c-.5.7-1.1 1.5-1.6 2.2-.1.2-.2.4-.2.6v2.2zM86.8 43.1h-3.3V42h7.8v1.2h-3.2v6.3h-1.3v-6.4zM156.2 43.2v6.3h-1.3v-6.3h-3.2V42h7.8v1.2h-3.3z"/>
    <path class="st1" d="M203.2 6.3h-.1c-.7.1-1.4-.1-1.9-.7-.3-.3-.6-.6-.9-.8-.2-.2-.4-.4-.2-.6.1-.1.3-.2.6-.2h.9c.4 0 .5-.1.5-.5V3c0-.4-.2-.6-.6-.6h-1.9c-.3 0-.3.2-.3.5v3.4h-.9V2.5c0-.6.2-.8.7-.8h2.7c.6-.1 1.1.4 1.2 1v.1c0 .4 0 .7-.1 1.1-.1.4-.5.7-.9.7h-.6l1.8 1.7z"/>
  </g>
</svg>