<svg version="1.1" id="layer" xmlns="http://www.w3.org/2000/svg" x="0" y="0" viewBox="0 0 500 500" xml:space="preserve">
  <style>
    .st0{fill:none}.st1{fill:#FFFFFF}
  </style>
  <path class="st0" d="M453 456.1c-1.4 0-2.3.1-2.9.3v6.5h2.5c2.9 0 5.2-1 5.2-3.3 0-2.1-1.5-3.5-4.8-3.5z"/>
  <path class="st0" d="M453.3 445.9c-9.7-.1-17.3 8-17.3 18 0 10.1 7.6 18.1 17.6 18.1 9.8.1 17.2-8 17.2-17.9 0-10.1-7.4-18.2-17.5-18.2zm5.6 29.7c-.7-.8-1.1-2.8-1.8-5.5-.4-2.3-1.8-3.4-4.7-3.4h-2.5v8.9h-5.2V453c2.1-.3 4.9-.7 8.7-.7 4.3 0 6.2.7 7.7 1.8 1.4 1 2.3 2.6 2.3 4.8 0 2.8-2.1 4.6-4.7 5.4v.3c2.2.7 3.3 2.5 4 5.5.7 3.5 1.2 4.7 1.7 5.5h-5.5z"/>
  <path class="st1" d="M250 0C111.9 0 0 112 0 250c0 138.1 111.9 250 250 250s250-111.9 250-250C500 112 388.1 0 250 0zm0 479.7C123.1 479.8 20.3 376.9 20.3 250 20.3 123.2 123.1 20.3 250 20.3S479.7 123.2 479.7 250c0 126.9-102.9 229.7-229.7 229.7z"/>
  <path class="st1" d="M250 36.4C132 36.4 36.4 132 36.4 250S132 463.6 250 463.6 463.6 368 463.6 250 368 36.4 250 36.4zm-84.1 213.3c-7.9 4.1-17.9 4.1-26.9 4.1H95v-99.5h39.8c12.6 0 25.4 0 34.5 8.1 3.2 2.9 7.6 8.3 7.6 17.1 0 17.6-16.3 21.4-21.2 22.6v.3c6.2 1.1 24 4.3 24 24.7 0 7.7-2.9 16.8-13.8 22.6zm99.5 50.7l-6.9-20h-39.8l-6.7 20h-27.6l39.3-99.5h33.6l39.3 99.5h-31.2zm97.4 47.4c-9.7 0-26.7-1.7-37.8-13.2-10.9-11.6-12.8-27.4-12.8-37.8 0-13.6 3.2-27.3 12.5-37.9 10.2-11.6 23.3-14.6 37.8-14.6 16.1 0 28.4 3.8 36.2 12.1 8 8.5 8.1 17.5 8.3 21.2h-28.4c-1.2-10.1-8.3-13.8-16.1-13.8-16.7 0-21.8 15.3-21.8 33.5 0 6.1.1 31.2 21.5 31.2 14.6 0 16.1-10.6 16.7-14.5h28.7c-.1 31.1-31.8 33.8-44.8 33.8z"/>
  <path class="st1" d="M144.3 193.2c3.2-1.8 5.2-5.4 5.2-9.7 0-3-1.1-6.6-3.8-8.8-3-2.4-6.1-2.4-9-2.4h-15v22.1h13c4.4 0 7.3 0 9.6-1.2zm-7.9 18.8h-14.5v23.6h15.3c3.2 0 14.2 0 14.2-11.6 0-12-11.3-12-15-12zm102.6 8.3l-13.8 41.8h27.1l-12.8-41.8h-.5zm214.6 221c-13.1 0-23.4 9.9-23.4 22.6s10.3 22.8 23.3 22.8 23.2-10.1 23.2-22.8-10.2-22.7-23.1-22.6zm0 40.7c-10 0-17.6-8-17.6-18.1 0-10 7.6-18.1 17.3-18 10.1 0 17.5 8.1 17.5 18.2 0 9.9-7.4 18-17.2 17.9z"/>
  <path class="st1" d="M458.7 464.6v-.3c2.6-.8 4.7-2.6 4.7-5.4 0-2.2-.9-3.8-2.3-4.8-1.5-1.1-3.4-1.8-7.7-1.8-3.8 0-6.6.4-8.7.7v22.6h5.2v-8.9h2.5c2.9 0 4.3 1.1 4.7 3.4.7 2.7 1.1 4.7 1.8 5.5h5.5c-.5-.8-1-2-1.7-5.5-.7-3-1.8-4.8-4-5.5zm-6.1-1.7h-2.5v-6.5c.6-.2 1.5-.3 2.9-.3 3.3 0 4.8 1.4 4.8 3.5 0 2.3-2.3 3.3-5.2 3.3z"/>
</svg>