<svg xmlns="http://www.w3.org/2000/svg" viewBox="0 0 200 92.7">
  <path fill="#FFFFFF" d="M102.2 27.4H30.6L43.2 0h71.7z"/>
  <path fill="#FFFFFF" d="M87.5 60.1H15.8l12.7-27.4h71.6z"/>
  <path fill="#FFFFFF" d="M71.7 92.7H0l12.6-27.4h71.7z"/>
  <path d="M69.4 35.9c1.3 0 1.8-.3 2.3-.8.3-.2.9-.1 1.1.1-.6 1.3-1.6 4-2 5.6-.2.3-1.1.3-1.3 0 .1-1.2.1-2.4-.3-2.8-.6-.5-1.5-.6-2.3-.6h-1.4c-1 0-1 0-1.3.9l-4.4 14.2c-.8 2.6-.8 3.2.8 3.4l1.2.2c.2.2.1.9-.2 1.1-2-.1-3.7-.1-5.1-.1-1.5 0-3 0-4.9.1-.3-.2-.4-1 .1-1.1l1.3-.2c1.4-.2 1.6-.5 2.6-3.4l4.5-14.2c.3-.8.2-.9-.8-.9H58c-.9 0-1.8.1-2.7.7-.6.5-1.4 1.3-2.3 2.7-.3.2-1.2 0-1.2-.4 1-2.1 1.9-3.9 2.4-5.4.2-.2.6-.2.9 0 0 .6.3.9 2.5.9h11.8z"/>
  <path d="M78.9 45.8c0 1.8-1.3 3.2-2.1 3.2-.6 0-.8-.6-.9-1.5-.1-.5-.3-.7-.5-.7-.5 0-1.4 1.3-2.2 2.8-1.4 2.6-2.3 5-3.4 7.5-.2.5-.8.6-1.5.6-.8 0-2.1-.3-1.8-1.3.9-3 2.1-6.3 3-9.1.2-.6.2-1-.1-1-.5 0-1.8.9-2.7 2-.4 0-.6-.4-.6-.7.6-1.3 2.7-3.6 5-3.6 1.9 0 1.9 1.4 1.4 3.1l-1.2 3.4h.2c1.1-1.9 1.9-3.3 2.7-4.3 1-1.4 2-2.2 3.2-2.2.8-.1 1.5.5 1.5 1.8M87.1 36.8c1.1 0 1.8.7 1.8 1.9 0 1.4-1 2.6-2.4 2.6-1.2 0-1.9-.8-1.9-1.8-.1-1.4 1-2.7 2.5-2.7m-3.7 17.8c-.1.3-.1.5.1.5.5 0 2.2-1.3 3-2 .4 0 .7.4.6.8-1.3 1.7-4.1 3.8-6.8 3.8-.8 0-1.5-.9-1.5-1.3s.1-.7.4-1.4l3.3-8c.1-.3.1-.4-.1-.4-.5 0-2.3 1.4-2.9 1.8-.4-.1-.6-.5-.5-.8 1.7-2.1 4.8-3.7 6.5-3.7.7 0 1.5.7 1.5 1.4 0 .3-.2.9-.4 1.4l-3.2 7.9z"/>
  <path fill="#FFFFFF" d="M108.6 48.2c.8 0 .8-.1.8-.9l.2-4c0-1 .1-2.7.2-3.4h-.1c-.5.8-1.3 2-2 3.2l-2.8 4.4c-.4.6-.3.7.6.7h3.1zm-4.3 1.7c-1 0-1 0-1.4.6l-2.1 3.4c-.5 1-.6 1.2-.6 1.4 0 .3.5.5 1.1.6l1.2.2c.3.2.2 1-.2 1.2-1.6-.1-2.9-.1-4.3-.1-1.1 0-2.2 0-3.1.1-.4-.2-.4-.9-.2-1.2l.8-.1c1.6-.3 2-.5 3.6-2.9 2.9-4.2 5.8-8.5 8.7-12.7 1-1.5 1.9-2.9 2.1-3.5 1.8-.1 3.3-1.4 3.3-1.4h.1c.3 0 .6.2.6.5 0 5.7-.2 11.4-.2 17.1 0 2.3 0 2.8 1.5 3l.8.1c.3.2.2 1-.1 1.1-1.2-.1-2.9-.1-4.5-.1-1.8 0-3.2 0-4.2.1-.4-.1-.4-.9-.2-1.1l.7-.1c1.5-.2 1.6-.6 1.7-1.4l.1-4.1c0-.6 0-.7-1-.7h-4.2zM130.2 45.8c0 1.8-1.3 3.2-2.1 3.2-.6 0-.8-.6-.9-1.5-.1-.5-.3-.7-.5-.7-.5 0-1.4 1.3-2.2 2.8-1.4 2.6-2.3 5-3.4 7.5-.2.5-.8.6-1.5.6-.8 0-2.1-.3-1.8-1.3.9-3 2.1-6.3 3-9.1.2-.6.2-1-.1-1-.5 0-1.8.9-2.7 2-.4 0-.6-.4-.6-.7.6-1.3 2.7-3.6 5-3.6 1.9 0 1.9 1.4 1.4 3.1l-1.2 3.4h.2c1.1-1.9 1.9-3.3 2.7-4.3 1-1.4 2-2.2 3.2-2.2.9-.1 1.5.5 1.5 1.8M137.8 45.9l-1.4 3.8h.1c1.7-2.5 4.5-5.8 7.2-5.8 1.4 0 1.8 1 1.8 1.9 0 .6-.6 2-1.4 4h.1c2.2-3.4 4.9-5.8 7.2-5.8 1.5 0 2.1 1.1 2.1 2 0 .8-.3 1.8-.6 2.8-.6 1.6-1.4 3.5-2.4 5.8-.2.5-.1.7.1.7.6 0 2-1.3 2.9-2.2.4-.1.7.2.6.6-.9 1.6-3.6 4.1-6.8 4.1-.7 0-1.4-.7-1.4-1.3 0-.5.2-1.1.5-1.7 1-2.3 1.9-4.5 2.7-6.7.3-.8.4-1.2.4-1.5 0-.3-.1-.4-.4-.4-.4 0-1.2.6-2.3 2.1-1.8 2.3-3.5 5.9-4.9 8.9-.3.6-.6.7-1.3.7-1.4 0-2.4-.4-2.2-1 .1-.4 2-5.3 3.3-8.7.3-.8.4-1.2.4-1.5 0-.3-.2-.4-.4-.4-.4 0-1.4.6-2.6 2.2-1.7 2.2-3.3 5.8-4.7 8.9-.2.4-.5.6-1.3.6-1.4 0-2.4-.4-2.2-1 .1-.4 2.7-7.6 3.2-9 .4-1.1.3-1.3-.2-1.3-1.1 0-2 1.2-2.6 1.8-.4 0-.7-.3-.7-.6.9-2.1 3-3.7 6.1-3.7 1.4-.3 1.4.8 1.1 1.7M162.5 46.5c-1.2 1.4-3.2 5.3-3.2 8.4 0 .8.4 1.3 1 1.3.8 0 1.5-.7 2.4-2.2.9-1.4 2.4-5 2.4-7.4 0-.7-.2-1.4-.9-1.4-.5.1-1.1.5-1.7 1.3m6.2 2.1c0 2.3-1.1 5-3 6.8-1.7 1.6-3.6 2.3-5.5 2.3-3.3 0-4.7-2.2-4.7-4.5 0-2.5 1.2-5.4 3.4-7.3 1.9-1.6 3.6-2 5-2 3.5 0 4.8 2.3 4.8 4.7M183.4 45.8c0 1.8-1.3 3.2-2.1 3.2-.6 0-.8-.6-.9-1.5-.1-.5-.3-.7-.5-.7-.5 0-1.4 1.3-2.2 2.8-1.4 2.6-2.3 5-3.4 7.5-.2.5-.8.6-1.5.6-.8 0-2.1-.3-1.8-1.3.9-3 2.1-6.3 3-9.1.2-.6.2-1-.1-1-.5 0-1.8.9-2.7 2-.4 0-.6-.4-.6-.7.6-1.3 2.7-3.6 5-3.6 1.9 0 1.9 1.4 1.4 3.1l-1.2 3.4h.2c1.1-1.9 1.9-3.3 2.7-4.3 1-1.4 2-2.2 3.2-2.2.9-.1 1.5.5 1.5 1.8M94 68.7c-.1-.9-.5-1.5-1.2-1.5-1.3 0-2.1 1.2-2.4 2.8-.3 1.6-.1 2.8 1.3 2.8 1 0 1.6-.7 2-1.6l.5.1c-.5 1.1-1.3 1.9-2.6 1.9-1.6 0-2.2-1.3-1.7-3.3.4-2 1.6-3.3 3.2-3.3 1.1 0 1.6.8 1.6 1.9l-.7.2zM95.4 70.9c-.3 1.3 0 2 .9 2s1.5-.7 1.8-2c.3-1.3 0-2-.9-2s-1.5.8-1.8 2m3.2 0c-.3 1.3-1 2.4-2.4 2.4s-1.6-1.1-1.4-2.4c.3-1.3 1-2.4 2.4-2.4 1.5 0 1.7 1.2 1.4 2.4M99.2 73.2l1-4.6h.5l-.2.9c.4-.6 1-1 1.5-1h.2l-.1.5h-.1c-.6 0-1.5.7-1.7 1.6l-.6 2.6h-.5zM102.1 73.2l1-4.6h.5l-.2.9c.4-.6 1-1 1.5-1h.2l-.1.5h-.2c-.6 0-1.5.7-1.7 1.6l-.6 2.6h-.4zM105.7 70.9c-.3 1.3 0 2 .9 2s1.5-.7 1.8-2c.3-1.3 0-2-.9-2s-1.5.8-1.8 2m3.3 0c-.3 1.3-1 2.4-2.4 2.4s-1.6-1.1-1.4-2.4c.3-1.3 1-2.4 2.4-2.4 1.5 0 1.7 1.2 1.4 2.4M109.7 72.1c.3.6.7.8 1.3.8.6 0 1.1-.4 1.2-.9.3-1.3-2.6-.6-2.2-2.2.2-.9 1-1.3 1.7-1.3.8 0 1.2.3 1.4.8l-.5.3c-.2-.4-.5-.7-1-.7s-1 .2-1.1.8c-.2 1.1 2.6.5 2.2 2.3-.2.8-1.1 1.3-1.9 1.3-.7 0-1.3-.3-1.6-.9l.5-.3zM115.2 67.6l.2-.8h-.5l-.2.8h.5zm-1.2 5.6l1-4.6h-.5l-1 4.6h.5z"/>
  <g fill="#FFFFFF">
    <path d="M116.1 70.9c-.3 1.3 0 2 .9 2s1.5-.7 1.8-2c.3-1.3 0-2-.9-2s-1.5.8-1.8 2m3.2 0c-.3 1.3-1 2.4-2.4 2.4s-1.6-1.1-1.4-2.4c.3-1.3 1-2.4 2.4-2.4 1.5 0 1.7 1.2 1.4 2.4M119.9 73.2l1-4.6h.5l-.2.7c.6-.5 1.1-.8 1.8-.8 1 0 1.2.5 1 1.6l-.7 3.1h-.5l.7-3.1c.2-.8 0-1.2-.7-1.2-.6 0-1 .3-1.7.9l-.8 3.4h-.4zM128.8 69.9h1.3c1.1 0 1.7-.5 1.9-1.3.2-.8-.2-1.3-1.3-1.3h-1.3l-.6 2.6zm-1.4 3.3l1.4-6.4h1.9c1.5 0 2 .7 1.8 1.8-.2 1.1-1 1.8-2.6 1.8h-1.3l-.6 2.8h-.6zM132.7 73.2l1-4.6h.5l-.2.9c.4-.6 1-1 1.5-1h.2l-.1.5h-.2c-.6 0-1.5.7-1.7 1.6l-.6 2.6h-.4zM136.3 70.9c-.3 1.3 0 2 .9 2s1.5-.7 1.8-2c.3-1.3 0-2-.9-2s-1.5.8-1.8 2m3.2 0c-.3 1.3-1 2.4-2.4 2.4s-1.6-1.1-1.4-2.4c.3-1.3 1-2.4 2.4-2.4 1.5 0 1.7 1.2 1.4 2.4M141.2 68.6l.3-1.5h.5l-.3 1.5h1l-.1.4h-1l-.7 3.4c-.1.3 0 .5.4.5.2 0 .4 0 .6-.1l-.1.4c-.2 0-.4.1-.6.1-.8 0-.9-.2-.8-.8l.8-3.5h-.7l.1-.4h.6zM146 70.5c.1-.9-.2-1.6-1-1.6-.9 0-1.5.9-1.7 1.6h2.7zm-2.8.4c-.2 1 0 2 1 2 .6 0 .9-.2 1.6-.9l.4.2c-.7.8-1.2 1.1-2.1 1.1-1.2 0-1.8-.8-1.4-2.4.3-1.4 1.3-2.4 2.4-2.4 1.2 0 1.6 1 1.3 2.4h-3.2zM150.5 69.9c-.1-.5-.4-1-1-1-.9 0-1.6.5-1.9 2-.3 1.2.1 2 1 2 .7 0 1.1-.4 1.6-1l.4.2c-.5.7-1.2 1.2-2.1 1.2-1.3 0-1.8-1-1.5-2.4.4-1.6 1.3-2.4 2.5-2.4.9 0 1.3.5 1.4 1.3l-.4.1zM152.5 68.6l.3-1.5h.5l-.3 1.5h1l-.1.4h-1l-.7 3.4c-.1.3 0 .5.4.5.2 0 .4 0 .6-.1l-.1.4c-.2 0-.4.1-.6.1-.8 0-.9-.2-.8-.8l.8-3.5h-.7l.1-.4h.6z"/>
  </g>
  <path fill="#FFFFFF" d="M155.7 67.6l.2-.8h-.5l-.2.8h.5zm-1.3 5.6l1-4.6h-.5l-1 4.6h.5z"/>
  <g fill="#FFFFFF">
    <path d="M156.5 70.9c-.3 1.3 0 2 .9 2s1.5-.7 1.8-2c.3-1.3 0-2-.9-2s-1.5.8-1.8 2m3.3 0c-.3 1.3-1 2.4-2.4 2.4s-1.6-1.1-1.4-2.4c.3-1.3 1-2.4 2.4-2.4s1.6 1.2 1.4 2.4M160.3 73.2l1-4.6h.5l-.2.7c.6-.5 1.1-.8 1.8-.8 1 0 1.2.5 1 1.6l-.7 3.1h-.5l.7-3.1c.2-.8 0-1.2-.7-1.2-.6 0-1 .3-1.7.9l-.8 3.4h-.4zM168.2 71.4c0 1 .5 1.4 1.5 1.4.8 0 1.4-.5 1.6-1.3.4-1.7-3.2-1-2.8-3.2.2-.9 1-1.7 2.2-1.7 1 0 1.6.5 1.7 1.5l-.5.1c-.1-.7-.5-1.2-1.3-1.2-.7 0-1.4.4-1.5 1.2-.1.4 0 .7 1 1.2 1.7.7 1.9 1.1 1.7 2-.2 1.1-1.3 1.7-2.3 1.7-1.2 0-1.8-.5-1.9-1.7h.6zM174 72.4l2.1-3.8h.6l-2.8 4.9c-.5.9-.9 1.3-1.8 1.3-.2 0-.4 0-.5-.1l.1-.4c.2 0 .3.1.5.1.4 0 .9-.3 1.3-1.3l-.6-4.5h.6l.5 3.8zM176.7 72.1c.3.6.7.8 1.3.8.6 0 1.1-.4 1.2-.9.3-1.3-2.6-.6-2.2-2.2.2-.9 1-1.3 1.7-1.3.8 0 1.2.3 1.4.8l-.5.3c-.2-.4-.5-.7-1-.7s-1 .2-1.1.8c-.2 1.1 2.6.5 2.2 2.3-.2.8-1.1 1.3-1.9 1.3-.7 0-1.3-.3-1.6-.9l.5-.3zM181.6 68.6l.3-1.5h.5l-.3 1.5h1l-.1.4h-1l-.7 3.4c-.1.3 0 .5.4.5.2 0 .4 0 .6-.1l-.1.4c-.2 0-.4.1-.6.1-.8 0-.9-.2-.8-.8l.8-3.5h-.7l.1-.4h.6zM186.4 70.5c.1-.9-.2-1.6-1-1.6-.9 0-1.5.9-1.7 1.6h2.7zm-2.8.4c-.2 1 0 2 1 2 .6 0 .9-.2 1.6-.9l.4.2c-.7.8-1.2 1.1-2.1 1.1-1.2 0-1.8-.8-1.4-2.4.3-1.4 1.3-2.4 2.4-2.4 1.2 0 1.6 1 1.3 2.4h-3.2zM187.4 73.2l1-4.6h.5l-.2.7c.6-.5 1-.8 1.7-.8.5 0 .9.3.9.8.5-.5 1-.8 1.7-.8.8 0 1.1.4.9 1.2l-.8 3.5h-.5l.8-3.5c.1-.5-.1-.8-.6-.8-.4 0-1.2.4-1.6.9l-.8 3.4h-.5l.8-3.5c.1-.5-.1-.8-.6-.8-.4 0-1.2.4-1.6.9l-.8 3.4h-.3zM187.3 42.9v-.6c0-.2.1-.2.2-.2s.4.1.4.4c0 .2 0 .3-.2.4-.1 0-.2.1-.3.1h-.1zm1.5 1.1c-.1 0-.1-.1-.2-.2-.3-.3-.4-.5-.6-.8.3-.1.5-.3.5-.6 0-.5-.4-.6-.8-.6h-1.2v.3c.3 0 .3 0 .3.3v1.1c0 .3 0 .3-.3.3v.3h1.1v-.3c-.3 0-.3 0-.3-.3v-.4h.1c.1 0 .2 0 .2.1.1.1.2.3.3.5.2.3.4.4.8.4l.1-.1zm-1.3-2.8c1 0 1.7.8 1.7 1.8s-.7 1.8-1.7 1.8-1.7-.8-1.7-1.8.7-1.8 1.7-1.8m0-.4c-1.2 0-2.2 1-2.2 2.2 0 1.2.9 2.2 2.2 2.2 1.3 0 2.2-1 2.2-2.2 0-1.2-.9-2.2-2.2-2.2"/>
  </g>
  <path fill="#FFFFFF" d="M196.8 22.4l-.7 3.4.1.1 3.2-1.6.6 2.1-3.4.5-.1.1 2.5 2.5-1.8 1.3-1.5-3.2h-.1l-1.5 3.2-1.8-1.3 2.5-2.5v-.1l-3.5-.5.6-2.1 3.2 1.6.1-.1-.7-3.4z"/>
</svg>