<?xml version="1.0" encoding="utf-8"?>
<!-- Generator: Adobe Illustrator 25.1.0, SVG Export Plug-In . SVG Version: 6.00 Build 0)  -->
<svg version="1.1" id="Layer_1" xmlns="http://www.w3.org/2000/svg" xmlns:xlink="http://www.w3.org/1999/xlink" x="0px" y="0px"
	 viewBox="0 0 203.8 77.8" enable-background="new 0 0 203.8 77.8" xml:space="preserve">
<g>
	<g>
		<defs>
			<polygon id="SVGID_1_" points="18.6,56.5 26.8,56.5 12,48.3 3.8,48.3 			"/>
		</defs>
		<use xlink:href="#SVGID_1_"  overflow="visible" fill="#FFFFFF"/>
		<clipPath id="SVGID_2_">
			<use xlink:href="#SVGID_1_"  overflow="visible"/>
		</clipPath>
		<polygon clip-path="url(#SVGID_2_)" fill="#FFFFFF" points="21.2,66.4 0.3,54.5 9.4,38.4 30.3,50.3 		"/>
	</g>
</g>
<g>
	<g>
		<defs>
			<polygon id="SVGID_3_" points="89.1,56.5 103.9,48.3 95.7,48.3 80.9,56.5 			"/>
		</defs>
		<use xlink:href="#SVGID_3_"  overflow="visible" fill="#FFFFFF"/>
		<clipPath id="SVGID_4_">
			<use xlink:href="#SVGID_3_"  overflow="visible"/>
		</clipPath>
		<polygon clip-path="url(#SVGID_4_)" fill="#FFFFFF" points="86.5,66.4 107.4,54.5 98.3,38.4 77.4,50.3 		"/>
	</g>
</g>
<polygon fill="#FFFFFF" points="26.8,40.1 41.7,48.3 33.5,48.3 18.6,40.1 "/>
<polygon fill="#FFFFFF" points="41.7,48.3 56.6,56.5 48.4,56.5 33.5,48.3 "/>
<g>
	<g>
		<defs>
			<polygon id="SVGID_5_" points="26.8,56.5 41.7,48.3 33.5,48.3 18.6,56.5 			"/>
		</defs>
		<use xlink:href="#SVGID_5_"  overflow="visible" fill="#FFFFFF"/>
		<clipPath id="SVGID_6_">
			<use xlink:href="#SVGID_5_"  overflow="visible"/>
		</clipPath>
		<rect x="18.6" y="48.3" clip-path="url(#SVGID_6_)" fill="#FFFFFF" width="23" height="8.2"/>
	</g>
</g>
<g>
	<g>
		<defs>
			<polygon id="SVGID_7_" points="41.7,48.3 56.6,40.1 48.4,40.1 33.5,48.3 			"/>
		</defs>
		<use xlink:href="#SVGID_7_"  overflow="visible" fill="#FFFFFF"/>
		<clipPath id="SVGID_8_">
			<use xlink:href="#SVGID_7_"  overflow="visible"/>
		</clipPath>
		<polygon clip-path="url(#SVGID_8_)" fill="#FFFFFF" points="60.1,46.2 39.3,58.2 30,42.1 50.8,30.2 		"/>
	</g>
</g>
<polygon fill="#FFFFFF" points="95.7,48.3 80.9,40.1 89.1,40.1 103.9,48.3 "/>
<polygon fill="#FFFFFF" points="3.8,48.3 12,48.3 26.8,40.1 18.6,40.1 "/>
<g>
	<g>
		<defs>
			<polygon id="SVGID_9_" points="81.2,56.5 89.3,56.5 74.5,48.3 66.3,48.3 			"/>
		</defs>
		<use xlink:href="#SVGID_9_"  overflow="visible" fill="#FFFFFF"/>
		<clipPath id="SVGID_10_">
			<use xlink:href="#SVGID_9_"  overflow="visible"/>
		</clipPath>
		<polygon clip-path="url(#SVGID_10_)" fill="#FFFFFF" points="72.5,38.1 93,50.5 83.1,66.7 62.7,54.2 		"/>
	</g>
</g>
<g>
	<g>
		<defs>
			<polygon id="SVGID_11_" points="66.5,48.3 74.7,48.3 59.9,40.1 51.7,40.1 			"/>
		</defs>
		<use xlink:href="#SVGID_11_"  overflow="visible" fill="#FFFFFF"/>
		<clipPath id="SVGID_12_">
			<use xlink:href="#SVGID_11_"  overflow="visible"/>
		</clipPath>
		<rect x="51.7" y="40.1" clip-path="url(#SVGID_12_)" fill="#FFFFFF" width="23" height="8.2"/>
	</g>
</g>
<polygon fill="#FFFFFF" points="74.3,48.3 89.2,40.1 81,40.1 66.1,48.3 "/>
<polygon fill="#FFFFFF" points="59.6,56.5 74.5,48.3 66.3,48.3 51.5,56.5 "/>
<g>
	<g>
		<path fill="#FFFFFF" d="M21.6,34.2c-2.5,0-4.9-0.5-7-1.4c-2.1-0.9-3.9-2.2-5.4-3.7c-1.5-1.6-2.6-3.4-3.4-5.4s-1.2-4.2-1.2-6.5
			v-0.1c0-2.3,0.4-4.4,1.2-6.5s2-3.9,3.5-5.5c1.5-1.5,3.3-2.8,5.4-3.7s4.4-1.4,7-1.4s4.9,0.5,7,1.4s3.9,2.2,5.3,3.7
			c1.5,1.6,2.6,3.4,3.4,5.4c0.8,2,1.2,4.2,1.2,6.5v0.1c0,2.3-0.4,4.4-1.2,6.5s-2,3.9-3.5,5.5s-3.3,2.8-5.4,3.8
			C26.5,33.7,24.2,34.2,21.6,34.2 M21.7,32c2.1,0,4-0.4,5.8-1.2c1.8-0.8,3.3-1.8,4.5-3.2c1.3-1.3,2.3-2.9,3-4.7
			c0.7-1.8,1.1-3.7,1.1-5.8V17c0-2-0.4-4-1.1-5.8s-1.7-3.4-3-4.7c-1.3-1.3-2.8-2.4-4.6-3.2c-1.8-0.8-3.7-1.2-5.8-1.2s-4,0.4-5.8,1.2
			s-3.3,1.8-4.5,3.2C10,7.8,9,9.4,8.3,11.2c-0.7,1.8-1,3.7-1,5.8v0.1c0,2,0.4,4,1.1,5.8c0.7,1.8,1.7,3.4,3,4.7
			c1.3,1.3,2.8,2.4,4.6,3.2C17.7,31.6,19.6,32,21.7,32"/>
	</g>
	<g>
		<path fill="#FFFFFF" d="M43.2,12.6h2.1v4.7c0.5-0.7,1-1.3,1.6-2c0.6-0.6,1.2-1.2,1.9-1.6c0.7-0.5,1.5-0.8,2.4-1.1s1.9-0.4,2.9-0.4
			c1.3,0,2.6,0.2,3.8,0.7s2.4,1.2,3.3,2.1c1,0.9,1.8,2.1,2.4,3.4c0.6,1.4,0.9,2.9,0.9,4.6v0.1c0,1.7-0.3,3.2-0.9,4.6
			c-0.6,1.4-1.4,2.5-2.4,3.5c-1,0.9-2.1,1.7-3.3,2.2s-2.5,0.8-3.8,0.8c-1.1,0-2-0.1-2.9-0.4c-0.9-0.3-1.7-0.6-2.4-1.1
			s-1.4-1-1.9-1.6c-0.6-0.6-1.1-1.2-1.5-1.9v11.1h-2.1L43.2,12.6z M53.9,32.2c1.2,0,2.3-0.2,3.3-0.6s1.9-1,2.7-1.8s1.4-1.7,1.8-2.8
			c0.4-1.1,0.7-2.4,0.7-3.8v-0.1c0-1.4-0.2-2.6-0.7-3.7s-1.1-2.1-1.8-2.9c-0.8-0.8-1.7-1.4-2.7-1.8c-1-0.4-2.1-0.6-3.2-0.6
			c-1.1,0-2.2,0.2-3.3,0.7c-1.1,0.4-2,1.1-2.8,1.8c-0.8,0.8-1.5,1.7-2,2.8c-0.5,1.1-0.7,2.3-0.7,3.7v0.1c0,1.3,0.2,2.6,0.7,3.7
			s1.1,2.1,2,2.8c0.8,0.8,1.7,1.4,2.8,1.8C51.7,32,52.8,32.2,53.9,32.2"/>
	</g>
	<g>
		<path fill="#FFFFFF" d="M78.1,34c-0.8,0-1.6-0.1-2.4-0.3c-0.7-0.2-1.4-0.6-1.9-1.1s-1-1.1-1.3-1.8c-0.3-0.7-0.5-1.6-0.5-2.6V14.4
			h-3.1v-1.8H72V6h2.1v6.7h7.5v1.8h-7.5V28c0,1.5,0.4,2.6,1.2,3.2c0.8,0.6,1.8,0.9,3.1,0.9c0.5,0,1-0.1,1.5-0.2
			c0.5-0.1,1-0.3,1.6-0.5v1.9c-0.6,0.2-1.1,0.4-1.7,0.6C79.3,33.9,78.7,34,78.1,34"/>
	</g>
	<g>
		<path fill="#FFFFFF" d="M90.3,4.4v2.8h-2.6V4.4H90.3z M90.1,12.6v21H88v-21C88,12.6,90.1,12.6,90.1,12.6z"/>
	</g>
	<g>
		<path fill="#FFFFFF" d="M108.3,77c-0.9,0-1.8-0.1-2.5-0.4s-1.5-0.7-2.2-1.2l0.6-0.6c0.3,0.3,0.6,0.5,1,0.7c0.3,0.2,0.6,0.3,1,0.5
			c0.3,0.1,0.7,0.2,1,0.3c0.4,0.1,0.8,0.1,1.2,0.1c0.4,0,0.8,0,1.2-0.1c0.4-0.1,0.7-0.2,0.9-0.4c0.3-0.2,0.5-0.4,0.6-0.6
			s0.2-0.5,0.2-0.8l0,0c0-0.3,0-0.5-0.1-0.7s-0.3-0.4-0.5-0.6s-0.6-0.3-1-0.5c-0.4-0.1-1-0.3-1.6-0.4c-0.7-0.1-1.3-0.3-1.8-0.4
			c-0.5-0.2-0.9-0.4-1.2-0.6c-0.3-0.2-0.5-0.5-0.7-0.8c-0.1-0.3-0.2-0.6-0.2-1l0,0c0-0.4,0.1-0.7,0.3-1c0.2-0.3,0.4-0.6,0.8-0.8
			c0.3-0.2,0.7-0.4,1.2-0.6c0.5-0.1,1-0.2,1.5-0.2c0.4,0,0.8,0,1.2,0.1c0.4,0.1,0.7,0.1,1,0.2s0.6,0.2,0.9,0.4
			c0.3,0.2,0.6,0.3,0.9,0.5l-0.5,0.6c-0.6-0.4-1.1-0.7-1.7-0.9c-0.6-0.2-1.2-0.3-1.8-0.3c-0.4,0-0.8,0-1.2,0.1
			c-0.3,0.1-0.6,0.2-0.9,0.4c-0.2,0.2-0.4,0.4-0.6,0.6c-0.1,0.2-0.2,0.5-0.2,0.7l0,0c0,0.3,0,0.5,0.1,0.7s0.3,0.4,0.5,0.6
			s0.6,0.3,1,0.5c0.4,0.1,1,0.3,1.7,0.4c1.3,0.2,2.3,0.6,2.9,1s0.9,1,0.9,1.7l0,0c0,0.4-0.1,0.8-0.3,1.1c-0.2,0.3-0.5,0.6-0.8,0.9
			c-0.3,0.2-0.7,0.4-1.2,0.6C109.4,76.9,108.9,77,108.3,77"/>
	</g>
	<g>
		<polygon fill="#FFFFFF" points="121.4,72.9 116.5,66.9 117.5,66.9 121.9,72.2 126.2,66.9 127.3,66.9 122.3,72.9 122.3,76.8 
			121.4,76.8 		"/>
	</g>
	<g>
		<path fill="#FFFFFF" d="M136,77c-0.9,0-1.8-0.1-2.5-0.4s-1.5-0.7-2.2-1.2l0.6-0.6c0.3,0.3,0.6,0.5,1,0.7c0.3,0.2,0.6,0.3,1,0.5
			c0.3,0.1,0.7,0.2,1,0.3c0.4,0.1,0.8,0.1,1.2,0.1s0.8,0,1.2-0.1s0.7-0.2,0.9-0.4c0.3-0.2,0.5-0.4,0.6-0.6s0.2-0.5,0.2-0.8l0,0
			c0-0.3,0-0.5-0.1-0.7s-0.3-0.4-0.5-0.6s-0.6-0.3-1-0.5c-0.4-0.1-1-0.3-1.6-0.4c-0.7-0.1-1.3-0.3-1.8-0.4c-0.5-0.2-0.9-0.4-1.2-0.6
			s-0.5-0.5-0.7-0.8c-0.1-0.3-0.2-0.6-0.2-1l0,0c0-0.4,0.1-0.7,0.3-1s0.4-0.6,0.8-0.8c0.3-0.2,0.7-0.4,1.2-0.6
			c0.5-0.1,1-0.2,1.5-0.2c0.4,0,0.8,0,1.2,0.1s0.7,0.1,1,0.2s0.6,0.2,0.9,0.4c0.3,0.2,0.6,0.3,0.9,0.5l-0.5,0.6
			c-0.6-0.4-1.1-0.7-1.7-0.9c-0.6-0.2-1.2-0.3-1.8-0.3c-0.4,0-0.8,0-1.2,0.1c-0.3,0.1-0.6,0.2-0.9,0.4c-0.2,0.2-0.4,0.4-0.6,0.6
			c-0.1,0.2-0.2,0.5-0.2,0.7l0,0c0,0.3,0,0.5,0.1,0.7s0.3,0.4,0.5,0.6s0.6,0.3,1,0.5c0.4,0.1,1,0.3,1.7,0.4c1.3,0.2,2.3,0.6,2.9,1
			c0.6,0.4,0.9,1,0.9,1.7l0,0c0,0.4-0.1,0.8-0.3,1.1c-0.2,0.3-0.5,0.6-0.8,0.9c-0.3,0.2-0.7,0.4-1.2,0.6C137.1,76.9,136.6,77,136,77
			"/>
	</g>
	<g>
		<polygon fill="#FFFFFF" points="148.9,67.5 144.8,67.5 144.8,66.9 153.8,66.9 153.8,67.5 149.7,67.5 149.7,76.8 148.9,76.8 		"/>
	</g>
	<g>
		<polygon fill="#FFFFFF" points="159.6,66.9 167.8,66.9 167.8,67.5 160.4,67.5 160.4,71.5 167.1,71.5 167.1,72.1 160.4,72.1 
			160.4,76.1 167.9,76.1 167.9,76.8 159.6,76.8 		"/>
	</g>
	<g>
		<polygon fill="#FFFFFF" points="173.8,66.9 174.6,66.9 179.3,72.8 183.9,66.9 184.8,66.9 184.8,76.8 183.9,76.8 183.9,68.2 
			179.3,73.9 179.2,73.9 174.6,68.2 174.6,76.8 173.8,76.8 		"/>
	</g>
	<g>
		<path fill="#FFFFFF" d="M118.9,63.8c-2.5,0-4.9-0.5-7.1-1.4s-4.1-2.2-5.6-3.7c-1.6-1.6-2.8-3.4-3.7-5.6c-0.9-2.1-1.3-4.4-1.3-6.9
			v-0.1c0-2.4,0.4-4.7,1.3-6.9c0.9-2.1,2.1-4,3.7-5.6c1.6-1.6,3.5-2.9,5.7-3.8s4.6-1.4,7.3-1.4c1.6,0,3.1,0.1,4.4,0.4
			s2.5,0.6,3.6,1.1s2.1,1,3,1.7c0.9,0.7,1.8,1.4,2.6,2.1l-3.9,4.4c-1.4-1.3-2.9-2.3-4.4-3.1c-1.6-0.8-3.3-1.2-5.3-1.2
			c-1.7,0-3.2,0.3-4.6,1c-1.4,0.6-2.6,1.5-3.6,2.6s-1.8,2.4-2.4,3.8c-0.6,1.5-0.9,3-0.9,4.7V46c0,1.7,0.3,3.2,0.9,4.7
			s1.4,2.8,2.4,3.9c1,1.1,2.2,2,3.6,2.6s3,1,4.6,1c1.1,0,2-0.1,2.9-0.3s1.7-0.5,2.5-0.9s1.6-0.8,2.3-1.4c0.7-0.6,1.5-1.2,2.2-1.9
			l3.9,3.9c-0.9,0.9-1.8,1.7-2.8,2.5c-1,0.7-2,1.4-3.2,1.9c-1.1,0.5-2.4,0.9-3.7,1.2C122,63.7,120.5,63.8,118.9,63.8"/>
	</g>
	<g>
		<path fill="#FFFFFF" d="M149.3,63.7c-1.7,0-3.4-0.3-4.9-0.9c-1.5-0.6-2.8-1.4-3.9-2.5c-1.1-1.1-1.9-2.3-2.5-3.7s-0.9-2.9-0.9-4.5
			V52c0-1.6,0.3-3.1,0.9-4.5c0.6-1.4,1.5-2.7,2.6-3.7c1.1-1.1,2.4-1.9,3.9-2.5s3.1-0.9,4.9-0.9c1.8,0,3.4,0.3,4.9,0.9
			c1.5,0.6,2.8,1.4,3.9,2.5c1.1,1.1,1.9,2.3,2.5,3.7s0.9,2.9,0.9,4.5l0,0c0,1.6-0.3,3.1-0.9,4.5c-0.6,1.4-1.5,2.7-2.6,3.7
			c-1.1,1.1-2.4,1.9-3.9,2.5C152.7,63.4,151,63.7,149.3,63.7 M149.3,59.3c1.1,0,2-0.2,2.9-0.6c0.9-0.4,1.6-0.9,2.2-1.6
			c0.6-0.7,1.1-1.4,1.4-2.3c0.3-0.9,0.5-1.8,0.5-2.7V52c0-1-0.2-1.9-0.5-2.8c-0.3-0.9-0.8-1.6-1.5-2.3c-0.6-0.7-1.4-1.2-2.2-1.6
			c-0.9-0.4-1.8-0.6-2.8-0.6s-2,0.2-2.9,0.6c-0.9,0.4-1.6,0.9-2.2,1.5c-0.6,0.6-1.1,1.4-1.4,2.3c-0.3,0.9-0.5,1.8-0.5,2.8V52
			c0,1,0.2,1.9,0.5,2.8c0.3,0.9,0.8,1.7,1.5,2.3c0.6,0.7,1.4,1.2,2.2,1.6C147.4,59.1,148.3,59.3,149.3,59.3"/>
	</g>
	<g>
		<path fill="#FFFFFF" d="M172.7,32.4v4.9H167v-4.9H172.7z M172.5,40.8v22.5h-5.3V40.8H172.5z"/>
	</g>
	<g>
		<rect x="179.7" y="32.2" fill="#FFFFFF" width="5.3" height="31"/>
	</g>
	<g>
		<polygon fill="#FFFFFF" points="191.3,33.4 188.9,33.4 188.9,32.2 195,32.2 195,33.4 192.6,33.4 192.6,39.6 191.3,39.6 		"/>
	</g>
	<g>
		<polygon fill="#FFFFFF" points="196.4,32.2 197.8,32.2 200.1,35.7 202.4,32.2 203.8,32.2 203.8,39.6 202.5,39.6 202.5,34.3 
			200.1,37.8 200.1,37.8 197.7,34.3 197.7,39.6 196.4,39.6 		"/>
	</g>
</g>
</svg>
