<svg xmlns="http://www.w3.org/2000/svg" xmlns:xlink="http://www.w3.org/1999/xlink" viewBox="0 0 200 55.3">
  <path fill="#FFFFFF" d="M188.5 15.8h1.2v3.3h.4v-3.3h1.2v-.3h-2.8zM191.9 19.1h.4V16l1.3 3.1h.2l1.3-3.1v3.1h.4v-3.6h-.6l-1.2 2.9-1.2-2.9h-.6z"/>
  <path fill="#FFFFFF" d="M0 5.1h87.2V12H0zM89.8 5.1h97.5V12H89.8z"/>
  <path fill="#FFFFFF" d="M0 36.9h87.2v6.9H0zM89.8 36.9h97.5v6.9H89.8zM.7 15.5v17.8h15.8v-2.1h-13v-6h11.7v-2.1H3.5v-5.5H16v-2.1z"/>
  <defs>
    <path id="a" d="M0 5.1h195.5v50.2H0z"/>
  </defs>
  <clipPath id="b">
    <use xlink:href="#a" overflow="visible"/>
  </clipPath>
  <path clip-path="url(#b)" fill="#FFFFFF" d="M37.6 15.5h-2.9l-5.7 13c-.4 1-.8 1.9-1.1 2.9-.3-.9-.7-1.9-1.1-2.9l-5.5-12.9h-3l8.2 17.8h2.9l8.2-17.9zM55.5 17.6v-2.1H40.2v17.8H56v-2.1H43v-6h11.7v-2.1H43v-5.5zM76.8 20.4c0-1-.3-1.9-.9-2.7-.6-.8-1.4-1.4-2.3-1.7-1-.3-2.4-.5-4.3-.5h-9.4v17.8h2.8v-7.9H66c.7 0 1.2 0 1.6.1.4.1.9.2 1.3.5.4.2.9.6 1.4 1.2.5.6 1.2 1.4 2 2.5l2.8 3.7h3.5l-3.7-4.9c-.7-1-1.5-1.7-2.3-2.4-.4-.3-.9-.6-1.7-.9 2-.2 3.5-.8 4.5-1.6 1-.9 1.4-2 1.4-3.2m-3.4 1.5c-.4.5-.9.8-1.6 1.1-.7.2-1.7.3-3 .3h-6v-5.8h6.7c1.6 0 2.7.3 3.4.8.7.5 1.1 1.2 1.1 2.1-.1.5-.3 1-.6 1.5"/>
  <path clip-path="url(#b)" fill="#FFFFFF" d="M79.7 15.5v3h6.2v14.8H90.2V18.5h6.3v-3h-9.3zM108.9 15.2c-1.7 0-3.2.2-4.6.7-1 .3-1.9.9-2.7 1.6-.8.7-1.5 1.5-2 2.4-.6 1.2-1 2.8-1 4.6 0 2.8.9 5.1 2.8 6.7 1.9 1.6 4.4 2.4 7.5 2.4 3.1 0 5.6-.8 7.4-2.4 1.9-1.6 2.8-3.9 2.8-6.8s-.9-5.2-2.8-6.8c-1.8-1.6-4.3-2.4-7.4-2.4m4.3 13.8c-1.1 1-2.5 1.6-4.2 1.6-1.7 0-3.1-.5-4.2-1.6-1.1-1-1.7-2.6-1.7-4.6 0-2.1.5-3.6 1.6-4.6 1.1-1 2.5-1.5 4.2-1.5 1.8 0 3.2.5 4.2 1.5 1.1 1 1.6 2.5 1.6 4.6.1 2-.5 3.6-1.5 4.6M123.5 15.5V25c0 2 .1 3.5.4 4.5.2.7.6 1.3 1.2 2 .6.6 1.4 1.1 2.5 1.5 1 .4 2.6.6 4.6.6 1.7 0 3-.2 4.1-.5 1-.4 1.9-.8 2.5-1.5.6-.6 1-1.4 1.3-2.2.2-.9.3-2.4.3-4.5v-9.4h-4.3v9.9c0 1.4-.1 2.4-.2 3-.1.6-.5 1.1-1.1 1.5-.6.4-1.5.6-2.7.6-1.2 0-2.1-.2-2.8-.7-.7-.4-1.1-1-1.3-1.8-.1-.5-.2-1.5-.2-3v-9.7l-4.3.2zM155.5 18.3c1.2 0 2.3.3 3.1.8.8.5 1.4 1.2 1.7 2.1l4.3-.6c-.4-1.6-1.4-2.9-2.9-3.8-1.5-.9-3.5-1.4-6.2-1.4-2 0-3.7.3-5.1.9-1.8.8-3.1 1.9-4.1 3.3-.9 1.4-1.4 3.1-1.4 5 0 1.7.4 3.3 1.2 4.8.8 1.5 2.1 2.6 3.7 3.4 1.6.8 3.6 1.2 5.8 1.2 1.7 0 3.5-.3 5.2-.8 1.7-.6 3-1.2 3.9-1.9v-7.1h-9.2v3h4.9v2.3c-.6.4-1.4.8-2.3 1.1-.9.3-1.8.4-2.7.4-1.8 0-3.3-.5-4.4-1.6-1.1-1.1-1.7-2.7-1.7-4.8 0-2 .5-3.4 1.7-4.4 1.2-1.4 2.7-1.9 4.5-1.9M186.7 33.3V15.5h-4.3v7H174v-7h-4.3v17.8h4.3v-7.7h8.4v7.7z"/>
  <path clip-path="url(#b)" fill="#FFFFFF" d="M3.7 54.7C2 54.7 1 53.3 1 51.8s1-2.9 2.7-2.9c.7 0 1.4.4 1.7.9l.6-.4c-.6-.7-1.5-1.1-2.3-1.1-2 0-3.5 1.5-3.5 3.5s1.5 3.5 3.5 3.5c1.1 0 2-.5 2.5-1.2l-.6-.4c-.5.8-1.2 1-1.9 1M20.6 48.3c-2 0-3.5 1.5-3.5 3.5s1.5 3.5 3.5 3.5 3.5-1.5 3.5-3.5-1.5-3.5-3.5-3.5m0 6.4c-1.7 0-2.7-1.3-2.7-2.9 0-1.5 1-2.9 2.7-2.9 1.7 0 2.7 1.3 2.7 2.9.1 1.5-.9 2.9-2.7 2.9M40.6 54.1l-4-5.6h-.8v6.6h.7v-5.7l4 5.7h.8v-6.6h-.7zM53.9 50.1c0-.8.7-1.2 1.4-1.2.6 0 1 .2 1.3.6l.6-.5c-.5-.6-1.1-.8-1.9-.8-1.1 0-2.2.6-2.2 1.9 0 2.4 3.4 1.4 3.4 3.3 0 .8-.8 1.2-1.4 1.2-.7 0-1.2-.3-1.5-.8l-.6.5c.5.7 1.3 1 2.1 1 1.1 0 2.2-.7 2.2-1.9 0-2.4-3.4-1.5-3.4-3.3M68.2 49.1h2.3v6h.7v-6h2.2v-.6h-5.2zM89 50.3c0-1.2-.8-1.8-2.2-1.8h-2.1v6.7h.7V52h1.1l1.8 3.1h.8L87.3 52c1.1-.1 1.7-.8 1.7-1.7m-3.6 1.1v-2.3h1.2c1.2 0 1.6.5 1.6 1.2 0 .6-.4 1.2-1.6 1.2h-1.2zM104.7 52.6c0 1.9-1.3 2.1-1.8 2.1s-1.8-.2-1.8-2.1v-4.1h-.7v4.2c0 1.1.4 2.6 2.4 2.6s2.4-1.5 2.4-2.6v-4.2h-.7v4.1zM120.5 54.7c-1.7 0-2.7-1.3-2.7-2.9 0-1.5 1-2.9 2.7-2.9.7 0 1.4.4 1.7.9l.6-.4c-.6-.7-1.5-1.1-2.3-1.1-2 0-3.5 1.5-3.5 3.5s1.5 3.5 3.5 3.5c1.1 0 2-.5 2.5-1.2l-.6-.4c-.5.8-1.2 1-1.9 1M133.6 49.1h2.3v6h.6v-6h2.3v-.6h-5.2zM150.1 48.5h.7v6.7h-.7zM166 48.3c-2 0-3.5 1.5-3.5 3.5s1.5 3.5 3.5 3.5 3.5-1.5 3.5-3.5c-.1-2-1.5-3.5-3.5-3.5m0 6.4c-1.7 0-2.7-1.3-2.7-2.9 0-1.5 1-2.9 2.7-2.9 1.7 0 2.7 1.3 2.7 2.9 0 1.5-1 2.9-2.7 2.9M186 54.1h-.1l-3.9-5.6h-.9v6.6h.7v-5.7l4 5.7h.8v-6.6h-.6z"/>
  <path fill="#FFFFFF" d="M197.4 0l-.5 2.8v.1l2.6-1.3.5 1.7-2.8.4-.1.1 2.1 2-1.5 1.1-1.2-2.6h-.1l-1.3 2.6-1.4-1.1 2.1-2-.1-.1-2.8-.4.5-1.7 2.6 1.3v-.1l-.5-2.8z"/>
</svg>