<svg xmlns="http://www.w3.org/2000/svg" viewBox="0 0 356 105.6">
  <path d="M22.1 100.4C9.9 100.4.2 90 .2 77.4c0-8.1 4.3-17.1 8.7-25.8 1.6-3.1 3.1-6.5 4.5-9.6L22 20.4 31.1 42c1.2 2.8 2.6 5.8 4.2 8.9 4.3 8.8 8.8 17.9 8.8 26.5-.1 12.7-10 23-22 23zm0-59l-1.4 3.7c-1.4 3.4-3.1 6.7-4.7 10.1-3.9 7.8-7.8 15.9-7.8 22.2 0 8.3 6.3 14.9 14 14.9s14-6.7 14-14.9c0-6.6-4.1-14.9-7.9-22.9-1.6-3.1-3.1-6.3-4.3-9.4l-1.9-3.7z" fill="#00b9f1"/>
  <path d="M49.3 78.9V49.5h14.8c5.5 0 6.7 2.6 6.7 7.7 0 3.1-.6 5.2-3.7 6.1v.1c3.9.7 4.6 3.5 4.6 7.1 0 5.3-1.9 8.2-6.9 8.2H49.3v.2zm3.4-16.6h9.6c4 0 5.3-.8 5.3-5.4 0-4-1.6-4.3-5.1-4.3h-10v9.8h.2zm0 13.6h10.5c3.6 0 5.3-.5 5.3-4.9 0-3.9-.6-5.8-4.9-5.8h-11v10.7h.1zm28.2-3.3l-2.3 6.3h-3.5l10.7-29.3h4.7l11 29.3H98l-2.3-6.3H80.9zm7.4-20.3l-6.5 17.6h13l-6.5-17.6zM109 75.9h14.9v3h-18.3V49.5h3.4v26.4zm26.5 3h-3.3V52.4h-9.5v-2.9H145v2.9h-9.5v26.5zM149 49.5h3.4v29.3H149V49.5zM166.3 79c-5.3 0-8.5-3.4-8.5-9.3V58.4c0-8.3 5.2-9.3 12.3-9.3h2.8c6.1 0 8.1 2.6 8.1 8.4v1h-3.4v-.8c0-4.1-.8-5.7-5.2-5.7h-1.9c-6.9 0-9.3.8-9.3 6.1v8.1c0 6.6.2 9.6 5.8 9.6h4c5.3 0 7-.7 7-4.9v-2.3h3.4v2.8c0 6.7-4.3 7.5-10.1 7.5h-4.8v.1zm22.6-6.4l-2.3 6.3h-3.5l10.7-29.3h4.7l11 29.3H206l-2.3-6.3h-14.8zm7.4-20.3l-6.5 17.6h13l-6.5-17.6zm20.4 26.6h-3.4V49.5h13.5c6.4 0 9.1 1.8 9.1 8.4 0 4.1-.5 7.1-5.2 7.7v.1c3.3.2 4.7 2.2 4.7 5.3v7.8H232v-6.3c0-3.7-.8-5.5-4.9-5.5h-10.7v11.8l.3.1zM227 64.2c5.2-.1 5.8-1.7 5.8-6.6 0-3.7-.5-5.2-5.8-5.2h-10.2v11.8H227zm17-1.8h14.9v2.8H244v10.7h15.5v3h-18.8V49.5h18.8v2.9H244v10zm18.7 16.5v-4h3.5v4.7c0 2-.4 3.6-3 3.6h-.8v-1.8c1.4 0 1.9-.5 1.9-1.9v-.7h-1.6v.1zm22.2-29.4h3.4v29.3h-3.4V49.5zm35 29.4h-5.4L298 52.3h-.1v26.6h-3.3V49.5h5.4l16.4 26.7h.1V49.5h3.4v29.4zm13.9.1c-5.3 0-8.5-3.4-8.5-9.3V58.4c0-8.3 5.2-9.3 12.3-9.3h2.8c6.1 0 8.1 2.6 8.1 8.4v1H345v-.8c0-4.1-.8-5.7-5.2-5.7h-1.9c-6.9 0-9.3.8-9.3 6.1v8.1c0 6.6.2 9.6 5.8 9.6h4c5.3 0 7-.7 7-4.9v-2.3h3.4v2.8c0 6.7-4.3 7.5-10.1 7.5h-4.8l-.1.1zm18-4.2h3.5v4h-3.5v-4zM52.7 93h7l-.2 1.3h-7l-1.1 5.1h7.2l-.2 1.3h-8.9l3-13.8h8.8l-.3 1.4h-7.3l-1 4.7zm11.5 7.7h-2L61 91h1.4l1 8.5L68 91h1.6l-5.4 9.7zm11 0l.2-1c-.8 1.1-2.2 1.2-3.5 1.2-2.2 0-3.6-.4-3-2.9.6-2.6 2-3 4.5-3 1 0 2.8.1 2.9 1h.1l.4-1.8c.4-1.8-.5-1.9-2.2-1.9-1.2 0-2.5 0-2.8 1.3l-.1.4h-1.6v-.2c.5-2.5 2.3-2.6 4.5-2.6 2.4 0 4.2.2 3.5 3.1l-1.4 6.6h-1.4l-.1-.2zm.6-2.9c.3-1.8-.8-1.8-2.6-1.8-1.7 0-2.4.1-2.8 1.7-.4 1.8.4 1.9 2 1.9 1.4 0 3 0 3.4-1.8m6.6-5.6c.8-1.1 2.2-1.3 3.4-1.3 3.5 0 3.4 2 2.8 4.9-.8 3.9-2 4.9-4.8 4.9-1.1 0-2.5-.1-2.9-1.2l-1.1 5.3h-1.4L81.2 91h1.4l-.2 1.2zm-.9 3.6c-.5 2.3-.6 3.7 1.9 3.7 2.3 0 2.8-.6 3.5-3.7.6-2.9.6-3.7-1.9-3.7-2.6 0-2.9 1.2-3.5 3.7m14.3-4.9c3.6 0 4.1.8 3.3 4.9-.8 4.1-1.8 4.9-5.3 4.9-3.6 0-4.1-.8-3.3-4.9.8-4 1.6-4.9 5.3-4.9m-1.9 8.7c2.6 0 2.9-.4 3.6-3.7.7-3.4.6-3.7-1.9-3.7s-2.9.4-3.6 3.7c-.8 3.3-.7 3.7 1.9 3.7m9.6-8.6l-.4 1.2c.7-1.1 1.9-1.3 3-1.3 1.8 0 2.5 1 2.2 2.8l-.1.7h-1.3l.1-.6c.2-1.2-.1-1.6-1.3-1.6-1.8 0-2.5.8-2.9 2.5l-1.3 6H100l2-9.6h1.4V91zm11.4 9.7l.2-1c-.8 1.1-2.2 1.2-3.5 1.2-2.2 0-3.6-.4-3-2.9.6-2.6 2-3 4.5-3 1 0 2.8.1 2.9 1h.1l.4-1.8c.4-1.8-.5-1.9-2.2-1.9-1.2 0-2.5 0-2.8 1.3l-.1.4h-1.6v-.2c.5-2.5 2.3-2.6 4.5-2.6 2.4 0 4.2.2 3.5 3.1l-1.4 6.6H115l-.1-.2zm.6-2.9c.4-1.8-.7-1.8-2.5-1.8-1.7 0-2.4.1-2.8 1.7-.4 1.8.4 1.9 2 1.9 1.4 0 2.9 0 3.3-1.8m10.2-5.6H122l-1.3 6.1c-.2 1.1 0 1.3 1.1 1.3 1.3 0 1.6-.7 1.7-1.7l.1-.7h1.3l-.1.7c-.4 1.9-1.4 2.8-3.4 2.8-2.3 0-2.6-.6-2.2-2.9l1.2-5.7h-1.3l.2-1.2h1.3l.5-2.3h1.4l-.5 2.3h3.7c.1.1 0 1.3 0 1.3zm1.4 8.5h-1.4l2-9.6h1.4l-2 9.6zm2.5-12.2h-1.4l.4-1.6h1.4l-.4 1.6zm3.8 12.2h-2l-1.1-9.6h1.4l1 8.5 4.5-8.5h1.6l-5.4 9.6zm13.3-2.9l-.1.4c-.6 2.5-2.5 2.6-4.7 2.6-3.7 0-4.1-1.2-3.3-4.9.8-4 1.9-4.9 5.4-4.9 3.1 0 4 .7 3.3 4.3l-.2 1h-7c-.6 3-.5 3.5 2.2 3.5 2 0 2.6-.1 3-1.4l.1-.4h1.3v-.2zm-.9-2.8c.5-2.8.2-2.9-2-2.9-2.6 0-2.9.7-3.5 2.9h5.5zm12.4 5.8c-2.5 0-3.7-1.6-3.1-4.3l1.1-5.3c.8-3.9 3.4-4.3 6.7-4.3h1.3c2.9 0 3.5 1.2 2.9 4l-.1.5h-1.6l.1-.4c.4-1.9.1-2.6-1.9-2.6h-.8c-3.3 0-4.5.4-5.1 2.9l-.8 3.9c-.7 3.1-.8 4.6 1.8 4.6h1.8c2.5 0 3.4-.4 3.7-2.3l.2-1.1h1.6l-.2 1.3c-.7 3.1-2.8 3.5-5.5 3.5h-2v-.4zm14.8-9.9c3.6 0 4.1.8 3.3 4.9-.8 4.1-1.8 4.9-5.3 4.9-3.6 0-4.1-.8-3.3-4.9s1.7-4.9 5.3-4.9m-1.9 8.7c2.6 0 2.9-.4 3.6-3.7.7-3.4.6-3.7-1.9-3.7-2.6 0-2.9.4-3.6 3.7-.7 3.3-.6 3.7 1.9 3.7m12.4-8.7c3.6 0 4.1.8 3.3 4.9-.8 4.1-1.8 4.9-5.3 4.9-3.6 0-4.1-.8-3.3-4.9.9-4 1.7-4.9 5.3-4.9m-1.8 8.7c2.6 0 2.9-.4 3.6-3.7.7-3.4.6-3.7-1.9-3.7-2.6 0-2.9.4-3.6 3.7-.9 3.3-.7 3.7 1.9 3.7m7.7 1.1H188l2.9-13.8h1.4l-2.9 13.8zm4 0H192l2-9.6h1.4l-2 9.6zm2.5-12.2h-1.4l.4-1.6h1.4l-.4 1.6zm3.3 3.7c.7-1.2 2.2-1.3 3.3-1.3 2.5 0 3.5.7 2.9 3.4l-1.3 6.4h-1.4l1.4-6.5c.4-1.8-.2-2-1.9-2-2.4 0-3 .7-3.5 3l-1.2 5.7h-1.4l2-9.6h1.4c-.1-.1-.3.9-.3.9zm15.3 9.7c-.6 2.5-2.5 3.1-4.9 3.1-2.3 0-4-.4-3.3-3.1h1.4c-.4 1.8.5 1.9 2 1.9 1.7 0 2.8-.2 3.3-2l.5-2.3c-.6 1.2-2.3 1.3-3.4 1.3-3.1 0-3.5-1.6-2.8-4.9.7-3.3 1.6-4.9 4.8-4.9 1.3 0 2.5.2 2.9 1.3l.2-1.2h1.4l-2.1 10.8zm-.3-6.1c.6-2.6.6-3.7-2-3.7s-2.9 1.2-3.5 3.7c-.5 2.3-1 3.7 1.8 3.7 2.9.1 3.2-1.5 3.7-3.7m5.3 4.9h-1.7l.4-1.9h1.7l-.4 1.9zm1.7-7.9h-1.7l.4-1.9h1.7l-.4 1.9zm22.6-6l-2.2 10c-.8 3.7-3 4-6.4 4-3 0-5.4-.1-4.6-4l2.2-10h1.6l-2.2 10c-.5 2.3 0 2.6 3.4 2.6 2.8 0 4 0 4.5-2.6l2.2-10h1.5zm2.9 5.4c.7-1.2 2.2-1.3 3.3-1.3 2.5 0 3.5.7 2.9 3.4l-1.3 6.4h-1.4l1.4-6.5c.4-1.8-.2-2-1.9-2-2.4 0-3 .7-3.5 3l-1.2 5.7h-1.4l2-9.6h1.4c0-.1-.3.9-.3.9zm8.8 8.5h-1.4l2-9.6h1.4l-2 9.6zm2.7-12.2h-1.4l.4-1.6h1.4l-.4 1.6zm6.8 3.7h-3.7l-1.3 6.1c-.2 1.1 0 1.3 1.1 1.3 1.3 0 1.6-.7 1.7-1.7l.1-.7h1.3l-.1.7c-.4 1.9-1.4 2.8-3.4 2.8-2.3 0-2.6-.6-2.2-2.9l1.2-5.7h-1.3l.2-1.2h1.3l.5-2.3h1.4l-.5 2.3h3.7v1.3zm9 1.4h-1.6l.1-.4c.2-1-.5-1-2-1-1.8 0-2.8 0-3 1.2-.4 1.7.1 1.6 1.7 1.7 2.4.1 4.8-.2 4.1 2.9-.6 2.8-2.5 2.9-4.7 2.9-2 0-4.2-.1-3.9-2.3l.2-1h1.6l-.1.7c-.2 1 .4 1.1 2.5 1.1 1 0 2.5.2 2.9-1.4.4-1.8-.5-1.4-2.2-1.6-2-.1-4.2.1-3.6-2.6.6-2.8 2.2-2.9 4.8-2.9 1.7 0 3.7.1 3.3 2.3l-.1.4zm31.5-6.8h7.1c2.6 0 2.9 1.8 2.4 4.2-.2 1.2-1 4.2-4.3 4.2h-5.4l-1.2 5.4h-1.6l3-13.8zm1.2 1.5l-1.2 5.7h4.1c2 0 3.1 0 3.7-2.6.6-2.6.1-3-1.8-3h-4.8zm14.7 12.4l.2-1c-.8 1.1-2.2 1.2-3.5 1.2-2.2 0-3.6-.4-3-2.9.6-2.6 2-3 4.5-3 1 0 2.8.1 2.9 1h.1l.4-1.8c.4-1.8-.5-1.9-2.2-1.9-1.1 0-2.5 0-2.8 1.3l-.1.4h-1.6v-.2c.5-2.5 2.3-2.6 4.5-2.6 2.4 0 4.2.2 3.5 3.1l-1.4 6.6h-1.4l-.1-.2zm.6-2.9c.4-1.8-.7-1.8-2.5-1.8-1.7 0-2.4.1-2.8 1.7-.4 1.8.4 1.9 2 1.9 1.5 0 2.9 0 3.3-1.8m6.6-6.8l-.4 1.2c.7-1.1 1.9-1.3 3-1.3 1.8 0 2.5 1 2.2 2.8l-.1.7H332l.1-.6c.2-1.2-.1-1.6-1.3-1.6-1.8 0-2.5.8-2.9 2.5l-1.3 6h-1.4l2-9.6h1.4V91zm12.5 1.2h-3.7l-1.3 6.1c-.2 1.1 0 1.3 1.1 1.3 1.3 0 1.6-.7 1.7-1.7l.1-.7h1.3l-.1.7c-.4 1.9-1.4 2.8-3.4 2.8-2.3 0-2.6-.6-2.2-2.9l1.2-5.7h-1.3l.2-1.2h1.3l.5-2.3h1.4l-.5 2.3h3.7v1.3zm9 1.4h-1.6l.1-.4c.2-1-.5-1-2-1-1.8 0-2.6 0-3 1.2-.4 1.7.1 1.6 1.7 1.7 2.4.1 4.8-.2 4.1 2.9-.6 2.8-2.5 2.9-4.7 2.9-2 0-4.3-.1-3.9-2.3l.2-1h1.6l-.1.7c-.2 1 .4 1.1 2.5 1.1 1 0 2.5.2 2.9-1.4.4-1.8-.5-1.4-2.2-1.6-2-.1-4.2.1-3.6-2.6.6-2.8 2.2-2.9 4.8-2.9 1.7 0 3.7.1 3.3 2.3l-.1.4zM292.9 99c-1.2 1.8-3.4 1.8-5.5 1.8-3 0-5.3 0-4.3-4.3.7-3.4 1.7-3.3 3.6-3.7-.7-.7-1-1.2-.7-2.8.6-2.8 2.2-3.3 4.9-3.3 2.5 0 3.7.6 3.1 3.5l-.2.8h-1.6l.2-.8c.4-1.8.1-2-1.9-2-1.4 0-2.6 0-3.1 1.9-.2 1 0 1.3.6 1.9l4.5 4.6c.1-.4.1-.6.2-1s.1-.6.1-1h1.4c-.1.4-.1.7-.2 1.1-.1.6-.4 1.3-.6 1.9l2 2-1.1 1.1-1.4-1.7zm-5.5-5.4c-2.2.5-2.4.7-2.9 2.9-.6 2.6-.2 2.9 3.1 2.9 1.4 0 3.6.1 4.2-1.3.1-.1-4.4-4.5-4.4-4.5z"/>
  <path d="M57.5 15.4C57.5 7.2 50.9.7 42.8.7c-8.2 0-14.7 6.6-14.7 14.7s6.6 17.8 10.4 26.2c2.2 4.8 3.3 9 3.9 11.8V38.1c-.1-1.7-.7-6.9-4.3-6.9-.2 0-.5-.2-.5-.5s.2-.6.5-.5c2.2 0 3.5 1.4 4.3 3.1V30c0-.1-.1-10.6-6.4-10.6-.2 0-.5-.2-.5-.5s.2-.5.5-.5c3.6 0 5.4 2.8 6.4 5.5v-2.2c0-.1-.1-12.9-7.8-12.9-.4.2-.6 0-.6-.2s.2-.5.5-.5c4.6 0 6.7 3.7 7.8 7.3V5.2c0-.2.2-.5.5-.5s.5.2.5.5v10c1.1-3.5 3.3-7 7.7-7 .2 0 .5.2.5.5s-.3.1-.5.1c-7.6 0-7.7 12.6-7.7 13v1.8c1-2.6 2.8-5.3 6.3-5.3.2 0 .5.2.5.5s-.2.5-.5.5c-6.1 0-6.3 10.4-6.3 10.6v3.3c.7-1.7 2-3.1 4.3-3.1.2 0 .5.2.5.5s-.3.4-.5.4c-3.7 0-4.2 5.5-4.3 7v15.4c.6-2.9 1.7-7.3 3.7-11.8 3.8-8.8 10.5-18.5 10.5-26.2z" fill="#0db14b"/>
</svg>
